<mxfile host="app.diagrams.net" modified="2021-05-19T06:47:08.340Z" agent="5.0 (Windows NT 10.0; Win64; x64) AppleWebKit/537.36 (KHTML, like Gecko) Chrome/90.0.4430.212 Safari/537.36" etag="7pyozQSe5rxwzSjkxqxr" version="14.6.13" type="github">
  <diagram id="C5RBs43oDa-KdzZeNtuy" name="Page-1">
    <mxGraphModel dx="796" dy="548" grid="1" gridSize="10" guides="1" tooltips="1" connect="1" arrows="1" fold="1" page="1" pageScale="1" pageWidth="827" pageHeight="1169" math="0" shadow="0">
      <root>
        <mxCell id="WIyWlLk6GJQsqaUBKTNV-0" />
        <mxCell id="WIyWlLk6GJQsqaUBKTNV-1" parent="WIyWlLk6GJQsqaUBKTNV-0" />
        <mxCell id="-VotVCtYLZae4jzRFcRn-1" style="edgeStyle=orthogonalEdgeStyle;rounded=0;orthogonalLoop=1;jettySize=auto;html=1;entryX=0.5;entryY=0;entryDx=0;entryDy=0;" edge="1" parent="WIyWlLk6GJQsqaUBKTNV-1" source="-VotVCtYLZae4jzRFcRn-0" target="-VotVCtYLZae4jzRFcRn-3">
          <mxGeometry relative="1" as="geometry">
            <mxPoint x="207.5" y="130" as="targetPoint" />
            <Array as="points">
              <mxPoint x="205" y="100" />
              <mxPoint x="208" y="100" />
              <mxPoint x="208" y="140" />
            </Array>
          </mxGeometry>
        </mxCell>
        <mxCell id="-VotVCtYLZae4jzRFcRn-0" value="" style="ellipse;whiteSpace=wrap;html=1;aspect=fixed;" vertex="1" parent="WIyWlLk6GJQsqaUBKTNV-1">
          <mxGeometry x="180" y="20" width="50" height="50" as="geometry" />
        </mxCell>
        <mxCell id="-VotVCtYLZae4jzRFcRn-5" style="edgeStyle=orthogonalEdgeStyle;rounded=0;orthogonalLoop=1;jettySize=auto;html=1;entryX=0.5;entryY=0;entryDx=0;entryDy=0;" edge="1" parent="WIyWlLk6GJQsqaUBKTNV-1" source="-VotVCtYLZae4jzRFcRn-3" target="-VotVCtYLZae4jzRFcRn-6">
          <mxGeometry relative="1" as="geometry">
            <mxPoint x="205" y="230" as="targetPoint" />
          </mxGeometry>
        </mxCell>
        <mxCell id="-VotVCtYLZae4jzRFcRn-3" value="parse2Dom解析组构造对象" style="rounded=0;whiteSpace=wrap;html=1;" vertex="1" parent="WIyWlLk6GJQsqaUBKTNV-1">
          <mxGeometry x="145" y="100" width="120" height="50" as="geometry" />
        </mxCell>
        <mxCell id="-VotVCtYLZae4jzRFcRn-9" style="edgeStyle=orthogonalEdgeStyle;rounded=0;orthogonalLoop=1;jettySize=auto;html=1;exitX=0.5;exitY=1;exitDx=0;exitDy=0;entryX=0.5;entryY=0;entryDx=0;entryDy=0;" edge="1" parent="WIyWlLk6GJQsqaUBKTNV-1" source="-VotVCtYLZae4jzRFcRn-6" target="-VotVCtYLZae4jzRFcRn-8">
          <mxGeometry relative="1" as="geometry" />
        </mxCell>
        <mxCell id="-VotVCtYLZae4jzRFcRn-6" value="createContractEntrust" style="rounded=0;whiteSpace=wrap;html=1;strokeColor=#000000;" vertex="1" parent="WIyWlLk6GJQsqaUBKTNV-1">
          <mxGeometry x="145" y="180" width="120" height="50" as="geometry" />
        </mxCell>
        <mxCell id="-VotVCtYLZae4jzRFcRn-11" style="edgeStyle=orthogonalEdgeStyle;rounded=0;orthogonalLoop=1;jettySize=auto;html=1;entryX=0.5;entryY=0;entryDx=0;entryDy=0;" edge="1" parent="WIyWlLk6GJQsqaUBKTNV-1" source="-VotVCtYLZae4jzRFcRn-8" target="-VotVCtYLZae4jzRFcRn-10">
          <mxGeometry relative="1" as="geometry" />
        </mxCell>
        <mxCell id="-VotVCtYLZae4jzRFcRn-8" value="&lt;div&gt;判断杠杆倍数是否相同&lt;/div&gt;&lt;div&gt;exchangeAccountPositionService.getList()&lt;/div&gt;&lt;div&gt;&lt;br&gt;&lt;/div&gt;" style="rounded=0;whiteSpace=wrap;html=1;strokeColor=#000000;" vertex="1" parent="WIyWlLk6GJQsqaUBKTNV-1">
          <mxGeometry x="145" y="260" width="120" height="50" as="geometry" />
        </mxCell>
        <mxCell id="-VotVCtYLZae4jzRFcRn-13" style="edgeStyle=orthogonalEdgeStyle;rounded=0;orthogonalLoop=1;jettySize=auto;html=1;entryX=0.5;entryY=0;entryDx=0;entryDy=0;" edge="1" parent="WIyWlLk6GJQsqaUBKTNV-1" source="-VotVCtYLZae4jzRFcRn-10" target="-VotVCtYLZae4jzRFcRn-12">
          <mxGeometry relative="1" as="geometry" />
        </mxCell>
        <mxCell id="-VotVCtYLZae4jzRFcRn-10" value="保存构造的合约对象" style="rounded=0;whiteSpace=wrap;html=1;strokeColor=#000000;" vertex="1" parent="WIyWlLk6GJQsqaUBKTNV-1">
          <mxGeometry x="145" y="350" width="120" height="60" as="geometry" />
        </mxCell>
        <mxCell id="-VotVCtYLZae4jzRFcRn-15" style="edgeStyle=orthogonalEdgeStyle;rounded=0;orthogonalLoop=1;jettySize=auto;html=1;entryX=0.5;entryY=0;entryDx=0;entryDy=0;" edge="1" parent="WIyWlLk6GJQsqaUBKTNV-1" source="-VotVCtYLZae4jzRFcRn-12" target="-VotVCtYLZae4jzRFcRn-14">
          <mxGeometry relative="1" as="geometry" />
        </mxCell>
        <mxCell id="-VotVCtYLZae4jzRFcRn-12" value="通过ContractEntrustExchange下单&lt;br&gt;" style="rounded=0;whiteSpace=wrap;html=1;strokeColor=#000000;" vertex="1" parent="WIyWlLk6GJQsqaUBKTNV-1">
          <mxGeometry x="145" y="450" width="120" height="60" as="geometry" />
        </mxCell>
        <mxCell id="-VotVCtYLZae4jzRFcRn-17" style="edgeStyle=orthogonalEdgeStyle;rounded=0;orthogonalLoop=1;jettySize=auto;html=1;entryX=0.5;entryY=0;entryDx=0;entryDy=0;" edge="1" parent="WIyWlLk6GJQsqaUBKTNV-1" source="-VotVCtYLZae4jzRFcRn-14" target="-VotVCtYLZae4jzRFcRn-16">
          <mxGeometry relative="1" as="geometry" />
        </mxCell>
        <mxCell id="-VotVCtYLZae4jzRFcRn-14" value="异步下单orderingAsyncRunnerService.run" style="rounded=0;whiteSpace=wrap;html=1;strokeColor=#000000;" vertex="1" parent="WIyWlLk6GJQsqaUBKTNV-1">
          <mxGeometry x="145" y="540" width="120" height="60" as="geometry" />
        </mxCell>
        <mxCell id="-VotVCtYLZae4jzRFcRn-19" style="edgeStyle=orthogonalEdgeStyle;rounded=0;orthogonalLoop=1;jettySize=auto;html=1;exitX=0.5;exitY=1;exitDx=0;exitDy=0;entryX=0.5;entryY=0;entryDx=0;entryDy=0;" edge="1" parent="WIyWlLk6GJQsqaUBKTNV-1" source="-VotVCtYLZae4jzRFcRn-16" target="-VotVCtYLZae4jzRFcRn-18">
          <mxGeometry relative="1" as="geometry" />
        </mxCell>
        <mxCell id="-VotVCtYLZae4jzRFcRn-16" value="处理contractEntrustExchange的一些属性&lt;br&gt;更新" style="rounded=0;whiteSpace=wrap;html=1;strokeColor=#000000;" vertex="1" parent="WIyWlLk6GJQsqaUBKTNV-1">
          <mxGeometry x="145" y="630" width="120" height="60" as="geometry" />
        </mxCell>
        <mxCell id="-VotVCtYLZae4jzRFcRn-21" style="edgeStyle=orthogonalEdgeStyle;rounded=0;orthogonalLoop=1;jettySize=auto;html=1;entryX=0.5;entryY=0;entryDx=0;entryDy=0;" edge="1" parent="WIyWlLk6GJQsqaUBKTNV-1" source="-VotVCtYLZae4jzRFcRn-18" target="-VotVCtYLZae4jzRFcRn-20">
          <mxGeometry relative="1" as="geometry" />
        </mxCell>
        <mxCell id="-VotVCtYLZae4jzRFcRn-18" value="同步合约contractEntrustSyncService.syncEntrust" style="rounded=0;whiteSpace=wrap;html=1;strokeColor=#000000;" vertex="1" parent="WIyWlLk6GJQsqaUBKTNV-1">
          <mxGeometry x="145" y="720" width="120" height="60" as="geometry" />
        </mxCell>
        <mxCell id="-VotVCtYLZae4jzRFcRn-20" value="contractEntrustSyncService.syncEntrust" style="rounded=0;whiteSpace=wrap;html=1;strokeColor=#000000;" vertex="1" parent="WIyWlLk6GJQsqaUBKTNV-1">
          <mxGeometry x="145" y="800" width="120" height="60" as="geometry" />
        </mxCell>
      </root>
    </mxGraphModel>
  </diagram>
</mxfile>